<svg xmlns="http://www.w3.org/2000/svg" xmlns:xlink="http://www.w3.org/1999/xlink" width="482" height="336" viewBox="0 0 482 336">
  <defs>
    <filter id="Rectangle" x="32" y="16" width="418" height="320" filterUnits="userSpaceOnUse">
      <feOffset dy="24" input="SourceAlpha"/>
      <feGaussianBlur stdDeviation="24" result="blur"/>
      <feFlood flood-color="#551e00" flood-opacity="0.039"/>
      <feComposite operator="in" in2="blur"/>
      <feComposite in="SourceGraphic"/>
    </filter>
    <filter id="Rectangle-2" x="16" y="8" width="450" height="320" filterUnits="userSpaceOnUse">
      <feOffset dy="24" input="SourceAlpha"/>
      <feGaussianBlur stdDeviation="24" result="blur-2"/>
      <feFlood flood-color="#551e00" flood-opacity="0.039"/>
      <feComposite operator="in" in2="blur-2"/>
      <feComposite in="SourceGraphic"/>
    </filter>
    <filter id="Rectangle-3" x="0" y="0" width="482" height="320" filterUnits="userSpaceOnUse">
      <feOffset dy="24" input="SourceAlpha"/>
      <feGaussianBlur stdDeviation="24" result="blur-3"/>
      <feFlood flood-color="#551e00" flood-opacity="0.039"/>
      <feComposite operator="in" in2="blur-3"/>
      <feComposite in="SourceGraphic"/>
    </filter>
  </defs>
  <g id="Group_1" data-name="Group 1" transform="translate(-895 -4848)">
    <path id="Path" d="M203.057,13.368A47.121,47.121,0,0,0,164.053.4,48.106,48.106,0,0,0,130.2,22.174a48.736,48.736,0,0,0-7.661,22.148l1.912-1.915A109.835,109.835,0,0,0,72.566,50.52,47.073,47.073,0,0,0,46.487,84.967a32.257,32.257,0,0,0,4.74,22.961L52.5,104.8A73.4,73.4,0,0,0,3.733,145.585a51.91,51.91,0,0,0-2.065,32.381,40.987,40.987,0,0,0,17.7,23.8,37.017,37.017,0,0,0,31.27,4.469l-2.93-1.662a53.172,53.172,0,0,0,42,35.489,101.437,101.437,0,0,0,64.908-8.667,111.771,111.771,0,0,0,32.212-22.87l-1.741.723a99.3,99.3,0,0,0,36.138-4.457,111.2,111.2,0,0,0,30.37-14.359,68.565,68.565,0,0,0,21.186-22.172,47.038,47.038,0,0,0,6.056-27.659,37.265,37.265,0,0,0-14.387-27.032v4.379a44.63,44.63,0,0,0,17.46-38.386,43.19,43.19,0,0,0-47.642-38.669l1.79,4.325a25.927,25.927,0,0,0,5.465-29.857A24.048,24.048,0,0,0,214.661,2.93a24.484,24.484,0,0,0-14.824,9.312,2.423,2.423,0,0,0,.862,3.289,2.461,2.461,0,0,0,3.286-.861,20.969,20.969,0,0,1,22.986-6.15,19.009,19.009,0,0,1,11.883,20.545,19.469,19.469,0,0,1-6.383,12.565,2.558,2.558,0,0,0,1.79,4.325,39.359,39.359,0,0,1,34.893,14.173,37.13,37.13,0,0,1,5.429,36.284,36.207,36.207,0,0,1-12.7,17.154,2.563,2.563,0,0,0-.512,3.981,37.984,37.984,0,0,1,6.635,49.047,65.4,65.4,0,0,1-21.347,21.25,109.079,109.079,0,0,1-30.88,13.5,94.209,94.209,0,0,1-18.065,3.09c-2.962.193-5.936.175-8.9.078a16.546,16.546,0,0,0-4.39-.108,9.621,9.621,0,0,0-3.252,2.807,107.022,107.022,0,0,1-26.014,18.558,98.854,98.854,0,0,1-59.344,10.782,52.806,52.806,0,0,1-41.551-27.406A36.262,36.262,0,0,1,52.3,203.3a2.4,2.4,0,0,0-2.93-1.662A35.091,35.091,0,0,1,6.841,179.628a46.181,46.181,0,0,1,.03-29.779,56.2,56.2,0,0,1,16.836-24.774,81.878,81.878,0,0,1,29.924-16.166,2.153,2.153,0,0,0,1.273-3.132,33.2,33.2,0,0,1,2.514-37,55.324,55.324,0,0,1,38.91-21.148,163.123,163.123,0,0,1,28.122-1.4,1.954,1.954,0,0,0,1.913-1.909,45.731,45.731,0,0,1,18.448-32.261,45.089,45.089,0,0,1,36.717-7.107,48.113,48.113,0,0,1,20.083,9.86,1.024,1.024,0,0,0,1.445-1.446h0Z" transform="translate(1009 4863)" fill="#e7c4b2"/>
    <g id="block" transform="translate(967 4896)">
      <g transform="matrix(1, 0, 0, 1, -72, -48)" filter="url(#Rectangle)">
        <rect id="Rectangle-4" data-name="Rectangle" width="274" height="176" rx="6" transform="translate(104 64)" fill="#fff"/>
      </g>
      <g transform="matrix(1, 0, 0, 1, -72, -48)" filter="url(#Rectangle-2)">
        <rect id="Rectangle-5" data-name="Rectangle" width="306" height="176" rx="6" transform="translate(88 56)" fill="#fff"/>
      </g>
      <g transform="matrix(1, 0, 0, 1, -72, -48)" filter="url(#Rectangle-3)">
        <rect id="Rectangle-6" data-name="Rectangle" width="338" height="176" rx="6" transform="translate(72 48)" fill="#fff"/>
      </g>
      <circle id="Oval" cx="20" cy="20" r="20" transform="translate(24 24)" fill="#f7cc47"/>
      <rect id="Rectangle-7" data-name="Rectangle" width="75" height="14" rx="2" transform="translate(24 78)" fill="#f5ded1"/>
      <rect id="Rectangle-8" data-name="Rectangle" width="126" height="6" rx="3" transform="translate(24 100)" fill="#f5ded1"/>
      <path id="Combined_Shape" data-name="Combined Shape" d="M-.636,92.511a70.98,70.98,0,0,0-1.019-24.72A98.1,98.1,0,0,0-19.771,28.112,96.87,96.87,0,0,0-35.05,12.138,97.805,97.805,0,0,0-44.7,5.205l4.685.934a.8.8,0,0,0,.175.077c.628.159,1.253.283,1.88.39a33.277,33.277,0,0,0,3.315.5l0-.018a1.649,1.649,0,0,0,1.527-1.211,1.651,1.651,0,0,0-1.089-2.011,33.6,33.6,0,0,0-5.036-1.052l-4.846-.937Q-49.046.914-54.02.049a1.6,1.6,0,0,0-1.853.913,1.565,1.565,0,0,0,.643,1.965q.891.41,1.77.841a32.827,32.827,0,0,0,.822,6.165,26.339,26.339,0,0,0,1.089,3.432,5.282,5.282,0,0,0,1.534,2.578,1.015,1.015,0,0,0,.894.062,1.014,1.014,0,0,0,.6-.669,6.328,6.328,0,0,0-.555-2.862c-.311-1.017-.572-2.05-.838-3.083q-.55-2.115-.905-4.273A82.108,82.108,0,0,1-35.042,16.129a97.024,97.024,0,0,1,25,34.428A95.878,95.878,0,0,1-3.83,71,125.616,125.616,0,0,1-1.968,92.331h0A.719.719,0,0,0-1.221,93,.554.554,0,0,0-.636,92.511Z" transform="translate(312.5 80.5) rotate(90)" fill="#ef6d58"/>
      <rect id="Rectangle-9" data-name="Rectangle" width="289" height="6" rx="3" transform="translate(24 144)" fill="#f4e4ff"/>
      <rect id="Rectangle-10" data-name="Rectangle" width="113" height="6" rx="3" transform="translate(24 144)" fill="#b550f8"/>
    </g>
  </g>
</svg>
