<svg width="33" height="31" viewBox="0 0 33 31" fill="none" xmlns="http://www.w3.org/2000/svg">
<g id="Logo">
<g id="Logo_2">
<rect id="Back" x="2.87891" y="4.07324" width="30.0568" height="26.5505" rx="4.9561" fill="#6C5FBC"/>
<rect id="Front" x="0.982067" y="1.24989" width="28.6239" height="25.1176" rx="4.23965" fill="#DBD9EE" stroke="#6C5FBC" stroke-width="1.43288"/>
<g id="Fork &#38; Knife">
<g id="Fork">
<path id="Vector" d="M23.4648 9.10547L7.17926 9.03346" stroke="#6C5FBC" stroke-width="1.48218" stroke-linecap="round" stroke-linejoin="round"/>
<path id="Vector_2" d="M23.4546 12.3664L19.8322 12.3504C18.3339 12.3438 17.1221 10.8772 17.1276 9.07718C17.1331 7.27716 18.3539 5.82135 19.8522 5.82798L23.4746 5.84399" stroke="#6C5FBC" stroke-width="1.48218" stroke-linecap="round" stroke-linejoin="round"/>
</g>
<g id="Knife">
<path id="Vector_3" d="M12.606 19.537L7.87341 19.4843C7.48563 19.4825 7.16071 19.0999 7.15332 18.634L7.12183 17.4057C7.11451 16.9186 7.44186 16.5072 7.84727 16.5089L12.527 16.5614L12.606 19.537Z" stroke="#6C5FBC" stroke-width="1.48218" stroke-linecap="round" stroke-linejoin="round"/>
<path id="Vector_4" d="M20.0397 21.3078L13.3503 21.2253C12.9625 21.2236 12.6376 20.841 12.6302 20.3751L12.5449 16.5522L23.412 16.685L23.4193 17.1721C23.4739 19.4806 21.9522 21.3375 20.0397 21.3078Z" stroke="#6C5FBC" stroke-width="1.48218" stroke-linecap="round" stroke-linejoin="round"/>
</g>
</g>
</g>
</g>
</svg>
