<svg width="26" height="26" viewBox="0 0 26 26" fill="none" xmlns="http://www.w3.org/2000/svg">
<g id="money">
<path id="Vector" d="M17.8963 22.2331H7.42572C4.28455 22.2331 2.19043 20.6625 2.19043 16.9978V9.6684C2.19043 6.00369 4.28455 4.43311 7.42572 4.43311H17.8963C21.0375 4.43311 23.1316 6.00369 23.1316 9.6684V16.9978C23.1316 20.6625 21.0375 22.2331 17.8963 22.2331Z" stroke="#22C55E" stroke-width="1.57059" stroke-miterlimit="10" stroke-linecap="round" stroke-linejoin="round"/>
<path id="Vector_2" d="M12.6617 16.4738C14.3965 16.4738 15.8029 15.0674 15.8029 13.3326C15.8029 11.5978 14.3965 10.1914 12.6617 10.1914C10.9269 10.1914 9.52051 11.5978 9.52051 13.3326C9.52051 15.0674 10.9269 16.4738 12.6617 16.4738Z" stroke="#22C55E" stroke-width="1.57059" stroke-miterlimit="10" stroke-linecap="round" stroke-linejoin="round"/>
<path id="Vector_3" d="M5.85645 10.7153V15.9506" stroke="#22C55E" stroke-width="1.57059" stroke-miterlimit="10" stroke-linecap="round" stroke-linejoin="round"/>
<path id="Vector_4" d="M19.4668 10.7153V15.9506" stroke="#22C55E" stroke-width="1.57059" stroke-miterlimit="10" stroke-linecap="round" stroke-linejoin="round"/>
</g>
</svg>
