<svg width="46" height="42" viewBox="0 0 46 42" fill="none" xmlns="http://www.w3.org/2000/svg">
<g id="Add">
<rect id="Base" x="0.568359" y="0.887695" width="44.4435" height="40.2769" rx="9.05536" fill="#323142"/>
<g id="+">
<mask id="path-2-inside-1_1_14112" fill="white">
<path d="M29.8493 22.2596H23.4209V28.7785H20.8557V22.2596H14.4575V19.9358H20.8557V13.3867H23.4209V19.9358H29.8493V22.2596Z"/>
</mask>
<path d="M29.8493 22.2596H23.4209V28.7785H20.8557V22.2596H14.4575V19.9358H20.8557V13.3867H23.4209V19.9358H29.8493V22.2596Z" fill="black"/>
<path d="M29.8493 22.2596V26.4262H34.0158V22.2596H29.8493ZM23.4209 22.2596V18.093H19.2544V22.2596H23.4209ZM23.4209 28.7785V32.945H27.5875V28.7785H23.4209ZM20.8557 28.7785H16.6891V32.945H20.8557V28.7785ZM20.8557 22.2596H25.0222V18.093H20.8557V22.2596ZM14.4575 22.2596H10.2909V26.4262H14.4575V22.2596ZM14.4575 19.9358V15.7692H10.2909V19.9358H14.4575ZM20.8557 19.9358V24.1023H25.0222V19.9358H20.8557ZM20.8557 13.3867V9.22014H16.6891V13.3867H20.8557ZM23.4209 13.3867H27.5875V9.22014H23.4209V13.3867ZM23.4209 19.9358H19.2544V24.1023H23.4209V19.9358ZM29.8493 19.9358H34.0158V15.7692H29.8493V19.9358ZM29.8493 18.093H23.4209V26.4262H29.8493V18.093ZM19.2544 22.2596V28.7785H27.5875V22.2596H19.2544ZM23.4209 24.6119H20.8557V32.945H23.4209V24.6119ZM25.0222 28.7785V22.2596H16.6891V28.7785H25.0222ZM20.8557 18.093H14.4575V26.4262H20.8557V18.093ZM18.6241 22.2596V19.9358H10.2909V22.2596H18.6241ZM14.4575 24.1023H20.8557V15.7692H14.4575V24.1023ZM25.0222 19.9358V13.3867H16.6891V19.9358H25.0222ZM20.8557 17.5533H23.4209V9.22014H20.8557V17.5533ZM19.2544 13.3867V19.9358H27.5875V13.3867H19.2544ZM23.4209 24.1023H29.8493V15.7692H23.4209V24.1023ZM25.6827 19.9358V22.2596H34.0158V19.9358H25.6827Z" fill="white" mask="url(#path-2-inside-1_1_14112)"/>
</g>
</g>
</svg>
