<svg width="235" height="22" viewBox="0 0 235 22" fill="none" xmlns="http://www.w3.org/2000/svg">
<g id="Socials">
<path id="Path 13" fill-rule="evenodd" clip-rule="evenodd" d="M159.953 10.6695H156.972V21.338H152.526V12.415V10.6695H150.435V6.90414H152.526V4.4462C152.526 2.72041 153.363 0.000976562 156.972 0.000976562H160.266V3.66174H157.913C157.547 3.66174 156.972 3.87094 156.972 4.70768V6.90414H160.319L159.953 10.6695Z" fill="#081420"/>
<g id="Group 888">
<path id="Path 8" fill-rule="evenodd" clip-rule="evenodd" d="M10.7721 0C12.1916 0.0506994 13.6618 0.0506994 15.0812 0.101392C16.3486 0.152085 17.5146 0.354867 18.6299 1.0139C20.0494 1.87572 20.9112 3.14309 21.2154 4.76533C21.3674 5.72853 21.4181 6.74243 21.4688 7.70564C21.5195 9.83483 21.4688 11.964 21.4688 14.0932C21.4688 15.2085 21.4181 16.3238 21.0633 17.3884C20.3535 19.4669 18.8834 20.7342 16.7542 21.1398C15.791 21.3426 14.7771 21.3426 13.8139 21.3933C11.6846 21.444 9.60615 21.3933 7.47694 21.3933C6.36165 21.3933 5.24635 21.3426 4.18176 20.9877C2.10325 20.278 0.835867 18.8078 0.430303 16.6786C0.227525 15.7154 0.227525 14.7015 0.176829 13.7383C0.126131 11.6091 0.176829 9.47996 0.176829 7.35077C0.176829 6.23549 0.227525 5.1202 0.582391 4.05559C1.29213 1.9771 2.76229 0.709734 4.89148 0.304173C5.8547 0.101399 6.8686 0.101399 7.83181 0.0506994C8.79502 0 9.75823 0 10.7721 0ZM19.5426 10.4939C19.4919 10.4939 19.5426 10.4939 19.5426 10.4939C19.4919 9.6321 19.4919 8.82097 19.4919 7.95916C19.4919 7.14805 19.4412 6.33692 19.3398 5.52581C19.137 3.70078 18.0724 2.4841 16.2981 2.12924C15.3855 1.92646 14.3716 1.92646 13.4591 1.92646C11.6341 1.87577 9.85976 1.87577 8.03473 1.92646C7.12222 1.92646 6.2097 1.97715 5.34788 2.12924C3.82702 2.38271 2.76243 3.24453 2.30617 4.76538C2.15408 5.27233 2.10339 5.77928 2.05269 6.28623C2.002 8.21264 2.002 10.139 2.002 12.0655C2.002 13.2821 2.05269 14.5495 2.15408 15.7662C2.30617 17.5912 3.42146 18.8586 5.2465 19.1627C6.159 19.3148 7.12222 19.3655 8.08543 19.3655C9.85976 19.4162 11.6341 19.3655 13.4591 19.3655C14.2703 19.3655 15.0814 19.3148 15.8925 19.2134C16.6529 19.1627 17.3627 18.9093 17.971 18.4023C18.9849 17.5912 19.3398 16.5266 19.3905 15.3099C19.4919 13.7891 19.4919 12.1668 19.5426 10.4939Z" fill="#081420"/>
<path id="Path 9" fill-rule="evenodd" clip-rule="evenodd" d="M16.2471 10.6962C16.2471 13.7379 13.8137 16.1712 10.772 16.1712C7.73025 16.1712 5.29688 13.7379 5.29688 10.6455C5.29688 7.65453 7.78094 5.22119 10.8227 5.22119C13.8137 5.22119 16.2471 7.65453 16.2471 10.6962ZM10.7719 14.2448C12.6983 14.2448 14.3205 12.6226 14.3205 10.6962C14.3205 8.76976 12.6983 7.14752 10.7719 7.14752C8.79474 7.14752 7.22318 8.76976 7.22318 10.6962C7.17248 12.6226 8.79474 14.2448 10.7719 14.2448Z" fill="#081420"/>
<path id="Path 10" d="M17.7184 4.96758C17.7184 5.67731 17.1607 6.28566 16.451 6.28566C15.7413 6.28566 15.1329 5.67731 15.1836 4.96758C15.1836 4.25785 15.7413 3.7002 16.451 3.7002C17.1607 3.7002 17.7184 4.25784 17.7184 4.96758Z" fill="#081420"/>
</g>
<path id="Path 7" fill-rule="evenodd" clip-rule="evenodd" d="M96.6325 12.4811V20.3602H92.0315V12.9987C92.0315 11.1583 91.3989 9.89304 89.731 9.89304C88.4658 9.89304 87.7181 10.7557 87.373 11.5609C87.258 11.8484 87.2005 12.251 87.2005 12.6536V20.3602H82.5995C82.5995 20.3602 82.657 7.88013 82.5995 6.61487H87.2005V8.57027C87.2005 8.57027 87.2005 8.62777 87.143 8.62777H87.2005V8.57027C87.8331 7.65008 88.8684 6.26979 91.3414 6.26979C94.332 6.26979 96.6325 8.28271 96.6325 12.4811ZM77.883 0.000976562C76.3301 0.000976562 75.2949 1.03619 75.2949 2.35897C75.2949 3.68174 76.2726 4.71697 77.8255 4.71697H77.883C79.4933 4.71697 80.471 3.68175 80.471 2.35897C80.4135 1.03619 79.4358 0.000976562 77.883 0.000976562ZM75.5256 20.3602H80.069V6.61489H75.5256V20.3602Z" fill="#081420"/>
<path id="Path 6" fill-rule="evenodd" clip-rule="evenodd" d="M234.615 3.82596C233.812 4.1774 233.009 4.42842 232.105 4.52883C233.009 3.97658 233.712 3.1231 234.013 2.11901C233.159 2.62106 232.206 2.97249 231.252 3.1733C230.448 2.31982 229.294 1.76758 228.039 1.76758C225.629 1.76758 223.671 3.72555 223.671 6.13537C223.671 6.48681 223.721 6.83823 223.771 7.13947C220.106 6.93865 216.893 5.23169 214.734 2.57085C214.333 3.22351 214.132 3.97658 214.132 4.77985C214.132 6.28599 214.885 7.64151 216.09 8.44478C215.387 8.44478 214.684 8.24397 214.082 7.89253V7.94273C214.082 10.0513 215.588 11.8587 217.596 12.2603C217.245 12.3607 216.843 12.4109 216.441 12.4109C216.14 12.4109 215.889 12.3607 215.638 12.3105C216.19 14.0677 217.797 15.3228 219.755 15.373C218.249 16.5277 216.391 17.2306 214.333 17.2306C213.981 17.2306 213.63 17.2306 213.278 17.1804C215.236 18.4355 217.496 19.1383 220.006 19.1383C228.089 19.1383 232.457 12.4611 232.457 6.68762C232.457 6.48681 232.457 6.28599 232.457 6.13537C233.31 5.48272 234.063 4.67944 234.615 3.82596Z" fill="#6C5FBC"/>
</g>
</svg>
