<svg width="26" height="26" viewBox="0 0 26 26" fill="none" xmlns="http://www.w3.org/2000/svg">
<g id="wallet">
<g id="wallet_2">
<path id="Vector" d="M13.3524 2.77494L13.321 2.84823L10.2845 9.89494H7.30039C6.58839 9.89494 5.9078 10.0415 5.29004 10.3033L7.12239 5.92659L7.16427 5.82188L7.23757 5.65435C7.25851 5.59153 7.27945 5.52871 7.31086 5.47635C8.68251 2.30376 10.2322 1.58129 13.3524 2.77494Z" stroke="#936DFF" stroke-width="1.57059" stroke-linecap="round" stroke-linejoin="round"/>
<path id="Vector_2" d="M18.9957 10.1043C18.5245 9.95773 18.0219 9.8949 17.5194 9.8949H10.2842L13.3206 2.8482L13.3521 2.7749C13.5091 2.82726 13.6557 2.90055 13.8128 2.96337L16.1268 3.93714C17.4147 4.47114 18.3151 5.02608 18.8596 5.6962C18.9643 5.82184 19.0481 5.93702 19.1214 6.07314C19.2156 6.21973 19.2889 6.36631 19.3308 6.52337C19.3727 6.61761 19.4041 6.71184 19.425 6.79561C19.7077 7.67514 19.5402 8.75361 18.9957 10.1043Z" stroke="#936DFF" stroke-width="1.57059" stroke-linecap="round" stroke-linejoin="round"/>
<path id="Vector_3" d="M22.6303 15.0052V17.0469C22.6303 17.2563 22.6198 17.4657 22.6093 17.6752C22.4104 21.3294 20.3686 23.1722 16.4945 23.1722H8.32744C8.07615 23.1722 7.82485 23.1513 7.58403 23.1199C4.25438 22.9 2.47438 21.12 2.2545 17.7903C2.22309 17.5495 2.20215 17.2982 2.20215 17.0469V15.0052C2.20215 12.9006 3.47956 11.0892 5.30144 10.3039C5.92968 10.0421 6.5998 9.89551 7.3118 9.89551H17.5311C18.0441 9.89551 18.5467 9.9688 19.0074 10.1049C21.0911 10.7436 22.6303 12.6912 22.6303 15.0052Z" stroke="#936DFF" stroke-width="1.57059" stroke-linecap="round" stroke-linejoin="round"/>
<path id="Vector_4" d="M7.12208 5.92676L5.28972 10.3035C3.46784 11.0888 2.19043 12.9002 2.19043 15.0048V11.9369C2.19043 8.96323 4.30549 6.4817 7.12208 5.92676Z" stroke="#936DFF" stroke-width="1.57059" stroke-linecap="round" stroke-linejoin="round"/>
<path id="Vector_5" d="M22.6277 11.9358V15.0036C22.6277 12.7001 21.099 10.7421 19.0049 10.1139C19.5494 8.7527 19.7064 7.6847 19.4446 6.7947C19.4237 6.70046 19.3923 6.60623 19.3504 6.52246C21.2979 7.52764 22.6277 9.59034 22.6277 11.9358Z" stroke="#936DFF" stroke-width="1.57059" stroke-linecap="round" stroke-linejoin="round"/>
</g>
</g>
</svg>
